<svg width="216" height="28" viewBox="0 0 216 28" fill="none" xmlns="http://www.w3.org/2000/svg">
<path d="M192.666 0L181.809 14.1647H181.647L178.893 0H167.388L160.096 28H168.846L172.573 13.6706H172.735L175.652 28H180.999L190.722 14.3294H190.884L187.319 28H196.231L203.685 0H192.666Z" fill="#121C3E"/>
<path d="M34.8387 0L31.1117 14.3294H30.9497L28.033 0H22.6856L12.9632 13.6706L2.75464 28H11.0187L21.8754 13.8353H22.0375L24.7921 28H36.297L43.5888 0H34.8387Z" fill="#121C3E"/>
<path d="M206.764 0L199.472 28H208.546L216 0H206.764Z" fill="#121C3E"/>
<path d="M40.186 28H49.2603L56.7142 0H47.4779L40.186 28Z" fill="#121C3E"/>
<path d="M166.902 0H155.397L132.387 17.9529L129.794 28H138.545L140.489 20.2588L144.864 17.2941L150.536 28H159.934L151.508 12.1882L166.902 0Z" fill="#121C3E"/>
<path d="M137.248 0L133.197 14.8235L152.318 0H137.248Z" fill="#B5232B"/>
<path d="M16.3661 0H7.45386L0 28H0.648162L13.9355 9.05882L20.2551 0H16.3661Z" fill="#B5232B"/>
<path d="M77.1314 0H67.8951H59.7931L57.6865 7.90588H65.7885L60.6033 28H69.6775L75.0249 7.90588H82.9648L85.0714 0H77.1314Z" fill="#121C3E"/>
<path d="M107.595 0L105.164 9.55294H94.9557L97.5484 0H88.3121L81.0203 28H90.0945L92.8492 17.4588H103.058L100.303 28H109.377L116.831 0H107.595Z" fill="#121C3E"/>
<path d="M20.9032 0H20.255L13.9354 9.05882L13.6113 10.3765" fill="white"/>
</svg>
