<svg width="140" height="18" viewBox="0 0 140 18" fill="none" xmlns="http://www.w3.org/2000/svg">
<g clip-path="url(#clip0_2618_32987)">
<path d="M124.876 0L117.839 9.10588H117.734L115.949 0H108.492L103.766 18H109.437L111.853 8.78824H111.958L113.848 18H117.314L123.616 9.21177H123.721L121.41 18H127.186L132.018 0H124.876Z" fill="white"/>
<path d="M22.5804 0L20.1648 9.21177H20.0597L18.1693 0H14.7034L8.40181 8.78824L1.78516 18H7.1415L14.1783 8.89412H14.2833L16.0687 18H23.5256L28.2518 0H22.5804Z" fill="white"/>
<path d="M134.013 0L129.287 18H135.169L140 0H134.013Z" fill="white"/>
<path d="M26.0469 18H31.9283L36.7596 0H30.7731L26.0469 18Z" fill="white"/>
<path d="M108.177 0H100.72L85.8064 11.5412L84.126 18H89.7974L91.0577 13.0235L93.8934 11.1176L97.5693 18H103.661L98.1995 7.83529L108.177 0Z" fill="white"/>
<path d="M88.9577 0L86.332 9.52941L98.7251 0H88.9577Z" fill="white"/>
<path d="M10.6077 0H4.83121L0 18H0.420105L9.03226 5.82353L13.1283 0H10.6077Z" fill="white"/>
<path d="M49.9928 0H44.0063H38.755L37.3896 5.08235H42.641L39.2801 18H45.1616L48.6275 5.08235H53.7737L55.1391 0H49.9928Z" fill="white"/>
<path d="M69.737 0L68.1616 6.14118H61.545L63.2254 0H57.2389L52.5127 18H58.3942L60.1796 11.2235H66.7963L65.0108 18H70.8923L75.7235 0H69.737Z" fill="white"/>
</g>
<defs>
<clipPath id="clip0_2618_32987">
<rect width="140" height="18" fill="white"/>
</clipPath>
</defs>
</svg>
