<svg width="20" height="20" viewBox="0 0 20 20" fill="none" xmlns="http://www.w3.org/2000/svg">
<path d="M10 13.568C10.1895 13.568 10.3474 13.5023 10.4737 13.371C10.6 13.2396 10.6631 13.0789 10.6631 12.889C10.6631 12.7 10.5974 12.5396 10.4661 12.4077C10.3342 12.2764 10.1736 12.2107 9.98409 12.2107C9.79462 12.2107 9.63673 12.2764 9.51042 12.4077C9.38411 12.5396 9.32096 12.7 9.32096 12.889C9.32096 13.0789 9.38689 13.2396 9.51876 13.371C9.65012 13.5023 9.81053 13.568 10 13.568ZM10.0318 7.33157C10.3582 7.33157 10.6212 7.41594 10.8208 7.58469C11.0208 7.75294 11.1209 7.97398 11.1209 8.24782C11.1209 8.42668 11.0683 8.61084 10.9632 8.8003C10.8576 8.98977 10.6998 9.17393 10.4896 9.35279C10.1632 9.63673 9.92901 9.89466 9.78704 10.1266C9.64507 10.358 9.56878 10.5947 9.55817 10.8367C9.54756 10.9524 9.58166 11.0524 9.66048 11.1368C9.7393 11.2212 9.84716 11.2634 9.98409 11.2634C10.1104 11.2634 10.221 11.2237 10.316 11.1444C10.4105 11.0656 10.4684 10.9577 10.4896 10.8208C10.5209 10.6525 10.5894 10.4921 10.695 10.3395C10.8001 10.1869 10.9683 9.99495 11.1997 9.76355C11.5367 9.44727 11.763 9.17342 11.8787 8.94202C11.9944 8.71062 12.0523 8.4527 12.0523 8.16825C12.0523 7.65239 11.8709 7.23683 11.5081 6.92156C11.1449 6.60528 10.6684 6.44714 10.0788 6.44714C9.68928 6.44714 9.33662 6.53151 9.02084 6.70027C8.70507 6.86851 8.42617 7.11583 8.18416 7.44221C8.12101 7.52659 8.10534 7.62132 8.13717 7.72641C8.1685 7.8315 8.23165 7.92093 8.32664 7.9947C8.42112 8.07907 8.53935 8.10812 8.68132 8.08185C8.8238 8.05558 8.94228 7.97929 9.03676 7.85297C9.16307 7.69483 9.30251 7.56852 9.4551 7.47404C9.60768 7.37906 9.79992 7.33157 10.0318 7.33157ZM10 16C9.16837 16 8.38954 15.8421 7.66351 15.5263C6.93697 15.2106 6.30264 14.7841 5.76052 14.2471C5.21839 13.7105 4.78944 13.0764 4.47366 12.3448C4.15789 11.6132 4 10.8316 4 10C4 9.16837 4.15789 8.38676 4.47366 7.65517C4.78944 6.92358 5.21839 6.2895 5.76052 5.75294C6.30264 5.21586 6.93697 4.78944 7.66351 4.47366C8.38954 4.15789 9.16837 4 10 4C10.8422 4 11.6264 4.15789 12.3524 4.47366C13.0789 4.78944 13.7133 5.21586 14.2554 5.75294C14.7975 6.2895 15.2237 6.92358 15.5339 7.65517C15.8446 8.38676 16 9.16837 16 10C16 10.8316 15.8446 11.6132 15.5339 12.3448C15.2237 13.0764 14.7975 13.7105 14.2554 14.2471C13.7133 14.7841 13.0789 15.2106 12.3524 15.5263C11.6264 15.8421 10.8422 16 10 16ZM10 14.989C11.4 14.989 12.5815 14.5022 13.5445 13.5286C14.5075 12.555 14.989 11.3788 14.989 10C14.989 8.6212 14.5075 7.44499 13.5445 6.47139C12.5815 5.49779 11.4 5.01099 10 5.01099C8.6212 5.01099 7.44499 5.49779 6.47139 6.47139C5.49779 7.44499 5.01099 8.6212 5.01099 10C5.01099 11.3788 5.49779 12.555 6.47139 13.5286C7.44499 14.5022 8.6212 14.989 10 14.989Z" fill="#2F7AD3"/>
</svg>
