<svg width="28" height="28" viewBox="0 0 28 28" fill="none" xmlns="http://www.w3.org/2000/svg">
<path d="M17.8221 10.1835C17.5856 9.9469 17.2033 9.9469 16.9667 10.1835L14 13.1445L11.0333 10.1775C10.7967 9.94084 10.4144 9.94084 10.1779 10.1775C9.94072 10.4141 9.94072 10.7963 10.1779 11.033L13.1446 14L10.1779 16.967C9.94072 17.2037 9.94072 17.5859 10.1779 17.8225C10.4144 18.0592 10.7967 18.0592 11.0333 17.8225L14 14.8555L16.9667 17.8225C17.2033 18.0592 17.5856 18.0592 17.8221 17.8225C18.0593 17.5859 18.0593 17.2037 17.8221 16.967L14.8554 14L17.8221 11.033C18.053 10.8024 18.053 10.4141 17.8221 10.1835Z" fill="#A4A4A4"/>
</svg>
