<svg width="218" height="62" viewBox="0 0 218 62" fill="none" xmlns="http://www.w3.org/2000/svg">
<rect x="10" y="10" width="42" height="42" rx="12" fill="#ECF1F8"/>
<path d="M29 30C31.2 30 33 28.2 33 26C33 23.8 31.2 22 29 22C26.8 22 25 23.8 25 26C25 28.2 26.8 30 29 30ZM29 24C30.1 24 31 24.9 31 26C31 27.1 30.1 28 29 28C27.9 28 27 27.1 27 26C27 24.9 27.9 24 29 24Z" fill="#253981"/>
<path d="M23 36.0001C23.2 35.3001 26.3 34.0001 29 34.0001C29 33.3001 29.1 32.6001 29.4 32.0001C26.6 31.9001 21 33.3001 21 36.0001V38.0001H30.5C30 37.4001 29.6 36.8001 29.3 36.0001H23Z" fill="#253981"/>
<path d="M38.4 36C38.8 35.4 39 34.7 39 34C39 31.8 37.2 30 35 30C32.8 30 31 31.8 31 34C31 36.2 32.8 38 35 38C35.7 38 36.4 37.8 37 37.4C37.9 38.3 38.6 39 39.6 40L41 38.6C39.5 37.1 40.2 37.8 38.4 36ZM35 36C33.9 36 33 35.1 33 34C33 32.9 33.9 32 35 32C36.1 32 37 32.9 37 34C37 35.1 36.1 36 35 36Z" fill="#253981"/>
<rect x="62" y="10" width="42" height="42" rx="12" fill="#ECF1F8"/>
<g clip-path="url(#clip0_1517_23465)">
<path d="M73.1001 37V39H89.1001V37C89.1001 34.3 83.8001 33 81.1001 33C78.4001 33 73.1001 34.3 73.1001 37ZM75.1001 37C75.3001 36.3 78.4001 35 81.1001 35C83.8001 35 86.9001 36.3 87.1001 37H75.1001Z" fill="#253981"/>
<path d="M89.3 37.8998C91.1225 37.8998 92.6 36.4223 92.6 34.5998C92.6 32.7773 91.1225 31.2998 89.3 31.2998C87.4775 31.2998 86 32.7773 86 34.5998C86 36.4223 87.4775 37.8998 89.3 37.8998Z" fill="#ECF1F8"/>
<path d="M85.1001 27C85.1001 24.8 83.3001 23 81.1001 23C78.9001 23 77.1001 24.8 77.1001 27C77.1001 29.2 78.9001 31 81.1001 31C83.3001 31 85.1001 29.2 85.1001 27ZM83.1001 27C83.1001 28.1 82.2001 29 81.1001 29C80.0001 29 79.1001 28.1 79.1001 27C79.1001 25.9 80.0001 25 81.1001 25C82.2001 25 83.1001 25.9 83.1001 27Z" fill="#253981"/>
<path d="M89.2998 40.2002C86.2998 40.2002 83.7998 37.7002 83.7998 34.7002C83.7998 31.7002 86.2998 29.2002 89.2998 29.2002C92.2998 29.2002 94.7998 31.7002 94.7998 34.7002C94.7998 37.7002 92.2998 40.2002 89.2998 40.2002ZM89.2998 32.6002C88.1998 32.6002 87.1998 33.6002 87.1998 34.7002C87.1998 35.9002 88.0998 36.8002 89.2998 36.8002C90.3998 36.8002 91.3998 35.8002 91.3998 34.7002C91.3998 33.6002 90.3998 32.6002 89.2998 32.6002Z" fill="#253981"/>
<path d="M89.2998 30.2002C91.7998 30.2002 93.7998 32.2002 93.7998 34.7002C93.7998 37.2002 91.7998 39.2002 89.2998 39.2002C86.7998 39.2002 84.7998 37.2002 84.7998 34.7002C84.7998 32.2002 86.7998 30.2002 89.2998 30.2002ZM89.2998 37.8002C90.9998 37.8002 92.3998 36.4002 92.3998 34.7002C92.3998 33.0002 90.9998 31.6002 89.2998 31.6002C87.5998 31.6002 86.1998 33.0002 86.1998 34.7002C86.1998 36.4002 87.4998 37.8002 89.2998 37.8002ZM89.2998 28.2002C85.6998 28.2002 82.7998 31.1002 82.7998 34.7002C82.7998 38.3002 85.6998 41.2002 89.2998 41.2002C92.8998 41.2002 95.7998 38.3002 95.7998 34.7002C95.7998 31.1002 92.8998 28.2002 89.2998 28.2002ZM89.2998 35.8002C88.4998 35.8002 88.1998 35.2002 88.1998 34.7002C88.1998 34.1002 88.6998 33.6002 89.2998 33.6002C89.8998 33.6002 90.3998 34.1002 90.3998 34.7002C90.3998 35.3002 89.8998 35.8002 89.2998 35.8002Z" fill="#ECF1F8"/>
<path d="M91.1004 35.9L89.6004 34.5V32.5H88.9004V34.8L90.5004 36.5L91.1004 35.9Z" fill="#253981"/>
<path d="M91.3002 35.9L89.8002 34.4V32.5H88.7002V34.9L90.5002 36.7L91.3002 35.9Z" fill="#253981"/>
</g>
<rect x="114" y="10" width="42" height="42" rx="12" fill="#ECF1F8"/>
<g clip-path="url(#clip1_1517_23465)">
<path d="M137.1 27C137.1 24.8 135.3 23 133.1 23C130.9 23 129.1 24.8 129.1 27C129.1 29.2 130.9 31 133.1 31C135.3 31 137.1 29.2 137.1 27ZM135.1 27C135.1 28.1 134.2 29 133.1 29C132 29 131.1 28.1 131.1 27C131.1 25.9 132 25 133.1 25C134.2 25 135.1 25.9 135.1 27Z" fill="#253981"/>
<path d="M125.1 37V39H141.1V37C141.1 34.3 135.8 33 133.1 33C130.4 33 125.1 34.3 125.1 37ZM127.1 37C127.3 36.3 130.4 35 133.1 35C135.8 35 138.9 36.3 139.1 37H127.1Z" fill="#253981"/>
<path d="M146.1 29H140.1V31H146.1V29Z" fill="#253981"/>
</g>
<rect x="166" y="10" width="42" height="42" rx="12" fill="#ECF1F8"/>
<g clip-path="url(#clip2_1517_23465)">
<path d="M185.2 25C186.3 25 187.2 25.9 187.2 27C187.2 28.1 186.3 29 185.2 29C184.1 29 183.2 28.1 183.2 27C183.2 25.9 184.1 25 185.2 25ZM185.2 35C187.9 35 191 36.3 191.2 37H179.2C179.5 36.3 182.5 35 185.2 35ZM185.2 23C183 23 181.2 24.8 181.2 27C181.2 29.2 183 31 185.2 31C187.4 31 189.2 29.2 189.2 27C189.2 24.8 187.4 23 185.2 23ZM185.2 33C182.5 33 177.2 34.3 177.2 37V39H193.2V37C193.2 34.3 187.9 33 185.2 33Z" fill="#253981"/>
<path d="M186.6 35.6006L189.4 32.8006L191.3 34.8006L195.5 30.6006L198.3 33.4006L191.3 40.4006L186.6 35.6006Z" fill="#253981"/>
<path d="M195.5 32.0002L196.9 33.4002L191.3 39.0002L188 35.6002L189.4 34.2002L191.3 36.2002L195.5 32.0002ZM195.5 29.2002L194 30.6002L191.2 33.4002L190.7 32.9002L189.3 31.4002L188 32.8002L186.6 34.2002L185.2 35.6002L186.6 37.0002L189.9 40.4002L191.3 41.8002L192.7 40.4002L198.3 34.8002L199.7 33.4002L198.3 32.0002L196.9 30.6002L195.5 29.2002Z" fill="#ECF1F8"/>
</g>
<defs>
<clipPath id="clip0_1517_23465">
<rect width="24" height="24" fill="white" transform="translate(71 19)"/>
</clipPath>
<clipPath id="clip1_1517_23465">
<rect width="24" height="24" fill="white" transform="translate(123 19)"/>
</clipPath>
<clipPath id="clip2_1517_23465">
<rect width="24" height="24" fill="white" transform="translate(175 19)"/>
</clipPath>
</defs>
</svg>
